{
    "asset" : {
        "generator" : "Khronos glTF Blender I/O v1.3.48",
        "version" : "2.0"
    },
    "scene" : 0,
    "scenes" : [
        {
            "name" : "Scene",
            "nodes" : [
                0
            ]
        }
    ],
    "nodes" : [
        {
            "mesh" : 0,
            "name" : "Kueh Bingka",
            "scale" : [
                3.9524967670440674,
                1.2881613969802856,
                3.9524967670440674
            ],
            "translation" : [
                -0.027313232421875,
                0.256785124540329,
                0.10522961616516113
            ]
        }
    ],
    "materials" : [
        {
            "doubleSided" : true,
            "emissiveFactor" : [
                0,
                0,
                0
            ],
            "name" : "kueh_bingka_mat",
            "pbrMetallicRoughness" : {
                "baseColorTexture" : {
                    "index" : 0,
                    "texCoord" : 0
                },
                "metallicFactor" : 0,
                "roughnessFactor" : 0.40242359042167664
            }
        }
    ],
    "meshes" : [
        {
            "name" : "Cylinder",
            "primitives" : [
                {
                    "attributes" : {
                        "POSITION" : 0,
                        "NORMAL" : 1,
                        "TEXCOORD_0" : 2
                    },
                    "indices" : 3,
                    "material" : 0
                }
            ]
        }
    ],
    "textures" : [
        {
            "source" : 0
        }
    ],
    "images" : [
        {
            "bufferView" : 4,
            "mimeType" : "image/png",
            "name" : "kueh bingka texture"
        }
    ],
    "accessors" : [
        {
            "bufferView" : 0,
            "componentType" : 5126,
            "count" : 20384,
            "max" : [
                0.9173724055290222,
                0.9760147333145142,
                0.9118372201919556
            ],
            "min" : [
                -0.9075950384140015,
                -0.9935736656188965,
                -0.9128745794296265
            ],
            "type" : "VEC3"
        },
        {
            "bufferView" : 1,
            "componentType" : 5126,
            "count" : 20384,
            "type" : "VEC3"
        },
        {
            "bufferView" : 2,
            "componentType" : 5126,
            "count" : 20384,
            "type" : "VEC2"
        },
        {
            "bufferView" : 3,
            "componentType" : 5123,
            "count" : 30576,
            "type" : "SCALAR"
        }
    ],
    "bufferViews" : [
        {
            "buffer" : 0,
            "byteLength" : 244608,
            "byteOffset" : 0
        },
        {
            "buffer" : 0,
            "byteLength" : 244608,
            "byteOffset" : 244608
        },
        {
            "buffer" : 0,
            "byteLength" : 163072,
            "byteOffset" : 489216
        },
        {
            "buffer" : 0,
            "byteLength" : 61152,
            "byteOffset" : 652288
        },
        {
            "buffer" : 0,
            "byteLength" : 1741057,
            "byteOffset" : 713440
        }
    ],
    "buffers" : [
        {
            "byteLength" : 2454500,
            "uri" : "data:application/octet-stream;base64,"
        }
    ]
}
