{
    "asset" : {
        "generator" : "Khronos glTF Blender I/O v1.3.48",
        "version" : "2.0"
    },
    "scene" : 0,
    "scenes" : [
        {
            "name" : "Scene",
            "nodes" : [
                0
            ]
        }
    ],
    "nodes" : [
        {
            "mesh" : 0,
            "name" : "Roti Paung",
            "scale" : [
                -4.356501579284668,
                1.1281535625457764,
                -4.356501579284668
            ],
            "translation" : [
                -0.04899376630783081,
                0.43587619066238403,
                -0.020182281732559204
            ]
        }
    ],
    "materials" : [
        {
            "doubleSided" : true,
            "emissiveFactor" : [
                0,
                0,
                0
            ],
            "name" : "Material",
            "pbrMetallicRoughness" : {
                "baseColorTexture" : {
                    "index" : 0,
                    "texCoord" : 0
                },
                "metallicFactor" : 0,
                "roughnessFactor" : 0.8791208863258362
            }
        }
    ],
    "meshes" : [
        {
            "name" : "Cylinder.001",
            "primitives" : [
                {
                    "attributes" : {
                        "POSITION" : 0,
                        "NORMAL" : 1,
                        "TEXCOORD_0" : 2
                    },
                    "indices" : 3,
                    "material" : 0
                }
            ]
        }
    ],
    "textures" : [
        {
            "source" : 0
        }
    ],
    "images" : [
        {
            "bufferView" : 4,
            "mimeType" : "image/png",
            "name" : "roti paung texture"
        }
    ],
    "accessors" : [
        {
            "bufferView" : 0,
            "componentType" : 5126,
            "count" : 44336,
            "max" : [
                0.991170346736908,
                1.2185907363891602,
                0.9872562289237976
            ],
            "min" : [
                -0.9914094805717468,
                -1.0827735662460327,
                -0.9880872964859009
            ],
            "type" : "VEC3"
        },
        {
            "bufferView" : 1,
            "componentType" : 5126,
            "count" : 44336,
            "type" : "VEC3"
        },
        {
            "bufferView" : 2,
            "componentType" : 5126,
            "count" : 44336,
            "type" : "VEC2"
        },
        {
            "bufferView" : 3,
            "componentType" : 5123,
            "count" : 66504,
            "type" : "SCALAR"
        }
    ],
    "bufferViews" : [
        {
            "buffer" : 0,
            "byteLength" : 532032,
            "byteOffset" : 0
        },
        {
            "buffer" : 0,
            "byteLength" : 532032,
            "byteOffset" : 532032
        },
        {
            "buffer" : 0,
            "byteLength" : 354688,
            "byteOffset" : 1064064
        },
        {
            "buffer" : 0,
            "byteLength" : 133008,
            "byteOffset" : 1418752
        },
        {
            "buffer" : 0,
            "byteLength" : 1141605,
            "byteOffset" : 1551760
        }
    ],
    "buffers" : [
        {
            "byteLength" : 2693368,
            "uri" : "data:application/octet-stream;base64,"
        }
    ]
}
