{
    "asset" : {
        "generator" : "Khronos glTF Blender I/O v1.3.48",
        "version" : "2.0"
    },
    "scene" : 0,
    "scenes" : [
        {
            "name" : "Scene",
            "nodes" : [
                6
            ]
        }
    ],
    "nodes" : [
        {
            "mesh" : 0,
            "name" : "Talam Banjar.001",
            "scale" : [
                1.0000028610229492,
                1,
                1
            ],
            "translation" : [
                0.07126665115356445,
                0,
                2.2384848594665527
            ]
        },
        {
            "mesh" : 1,
            "name" : "Talam Banjar.002",
            "translation" : [
                2.343888282775879,
                0,
                0
            ]
        },
        {
            "mesh" : 2,
            "name" : "Talam Banjar.003",
            "scale" : [
                1.0000028610229492,
                1,
                1
            ],
            "translation" : [
                2.4151551723480225,
                0,
                2.2384848594665527
            ]
        },
        {
            "mesh" : 3,
            "name" : "Talam Banjar.004",
            "translation" : [
                4.667881965637207,
                0,
                0
            ]
        },
        {
            "mesh" : 4,
            "name" : "Talam Banjar.005",
            "scale" : [
                1.0000028610229492,
                1,
                1
            ],
            "translation" : [
                4.739148139953613,
                0,
                2.2384848594665527
            ]
        },
        {
            "mesh" : 5,
            "name" : "Talam Banjar.006",
            "rotation" : [
                0,
                0.37645766139030457,
                0,
                0.9264339208602905
            ],
            "scale" : [
                0.9242631196975708,
                1,
                1.099006175994873
            ],
            "translation" : [
                2.237255334854126,
                1.9798953533172607,
                0.9867189526557922
            ]
        },
        {
            "children" : [
                0,
                1,
                2,
                3,
                4,
                5
            ],
            "mesh" : 6,
            "name" : "Talam Banjar",
            "scale" : [
                1.211456537246704,
                1,
                1.446613073348999
            ],
            "translation" : [
                -2.8334262371063232,
                0.23491382598876953,
                -1.6636592149734497
            ]
        }
    ],
    "materials" : [
        {
            "doubleSided" : true,
            "emissiveFactor" : [
                0,
                0,
                0
            ],
            "name" : "talam_banjar_mat.001",
            "pbrMetallicRoughness" : {
                "baseColorTexture" : {
                    "index" : 0,
                    "texCoord" : 0
                },
                "metallicFactor" : 0.1418439745903015,
                "roughnessFactor" : 0.6411347389221191
            }
        },
        {
            "doubleSided" : true,
            "emissiveFactor" : [
                0,
                0,
                0
            ],
            "name" : "talam_banjar_mat",
            "pbrMetallicRoughness" : {
                "baseColorTexture" : {
                    "index" : 1,
                    "texCoord" : 0
                },
                "metallicFactor" : 0.1418439745903015,
                "roughnessFactor" : 0.6411347389221191
            }
        }
    ],
    "meshes" : [
        {
            "name" : "Cube.001",
            "primitives" : [
                {
                    "attributes" : {
                        "POSITION" : 0,
                        "NORMAL" : 1,
                        "TEXCOORD_0" : 2
                    },
                    "indices" : 3,
                    "material" : 0
                }
            ]
        },
        {
            "name" : "Cube.002",
            "primitives" : [
                {
                    "attributes" : {
                        "POSITION" : 4,
                        "NORMAL" : 5,
                        "TEXCOORD_0" : 6
                    },
                    "indices" : 3,
                    "material" : 1
                }
            ]
        },
        {
            "name" : "Cube.003",
            "primitives" : [
                {
                    "attributes" : {
                        "POSITION" : 7,
                        "NORMAL" : 8,
                        "TEXCOORD_0" : 9
                    },
                    "indices" : 3,
                    "material" : 0
                }
            ]
        },
        {
            "name" : "Cube.004",
            "primitives" : [
                {
                    "attributes" : {
                        "POSITION" : 10,
                        "NORMAL" : 11,
                        "TEXCOORD_0" : 12
                    },
                    "indices" : 3,
                    "material" : 1
                }
            ]
        },
        {
            "name" : "Cube.005",
            "primitives" : [
                {
                    "attributes" : {
                        "POSITION" : 13,
                        "NORMAL" : 14,
                        "TEXCOORD_0" : 15
                    },
                    "indices" : 3,
                    "material" : 0
                }
            ]
        },
        {
            "name" : "Cube.006",
            "primitives" : [
                {
                    "attributes" : {
                        "POSITION" : 16,
                        "NORMAL" : 17,
                        "TEXCOORD_0" : 18
                    },
                    "indices" : 3,
                    "material" : 0
                }
            ]
        },
        {
            "name" : "Cube",
            "primitives" : [
                {
                    "attributes" : {
                        "POSITION" : 19,
                        "NORMAL" : 20,
                        "TEXCOORD_0" : 21
                    },
                    "indices" : 3,
                    "material" : 1
                }
            ]
        }
    ],
    "textures" : [
        {
            "source" : 0
        },
        {
            "source" : 0
        }
    ],
    "images" : [
        {
            "bufferView" : 4,
            "mimeType" : "image/png",
            "name" : "talam_banjar_texture"
        }
    ],
    "accessors" : [
        {
            "bufferView" : 0,
            "componentType" : 5126,
            "count" : 309,
            "max" : [
                1.0909231901168823,
                1.0321370363235474,
                1.0578778982162476
            ],
            "min" : [
                -1.0628046989440918,
                -1,
                -1.0467510223388672
            ],
            "type" : "VEC3"
        },
        {
            "bufferView" : 1,
            "componentType" : 5126,
            "count" : 309,
            "type" : "VEC3"
        },
        {
            "bufferView" : 2,
            "componentType" : 5126,
            "count" : 309,
            "type" : "VEC2"
        },
        {
            "bufferView" : 3,
            "componentType" : 5123,
            "count" : 576,
            "type" : "SCALAR"
        },
        {
            "bufferView" : 5,
            "componentType" : 5126,
            "count" : 309,
            "max" : [
                1.0909231901168823,
                1.0321370363235474,
                1.0578778982162476
            ],
            "min" : [
                -1.0628046989440918,
                -1,
                -1.0467510223388672
            ],
            "type" : "VEC3"
        },
        {
            "bufferView" : 6,
            "componentType" : 5126,
            "count" : 309,
            "type" : "VEC3"
        },
        {
            "bufferView" : 7,
            "componentType" : 5126,
            "count" : 309,
            "type" : "VEC2"
        },
        {
            "bufferView" : 8,
            "componentType" : 5126,
            "count" : 309,
            "max" : [
                1.0909231901168823,
                1.0321370363235474,
                1.0578778982162476
            ],
            "min" : [
                -1.0628046989440918,
                -1,
                -1.0467510223388672
            ],
            "type" : "VEC3"
        },
        {
            "bufferView" : 9,
            "componentType" : 5126,
            "count" : 309,
            "type" : "VEC3"
        },
        {
            "bufferView" : 10,
            "componentType" : 5126,
            "count" : 309,
            "type" : "VEC2"
        },
        {
            "bufferView" : 11,
            "componentType" : 5126,
            "count" : 309,
            "max" : [
                1.0909231901168823,
                1.0321370363235474,
                1.0578778982162476
            ],
            "min" : [
                -1.0628046989440918,
                -1,
                -1.0467510223388672
            ],
            "type" : "VEC3"
        },
        {
            "bufferView" : 12,
            "componentType" : 5126,
            "count" : 309,
            "type" : "VEC3"
        },
        {
            "bufferView" : 13,
            "componentType" : 5126,
            "count" : 309,
            "type" : "VEC2"
        },
        {
            "bufferView" : 14,
            "componentType" : 5126,
            "count" : 309,
            "max" : [
                1.0909231901168823,
                1.0321370363235474,
                1.0578778982162476
            ],
            "min" : [
                -1.0628046989440918,
                -1,
                -1.0467510223388672
            ],
            "type" : "VEC3"
        },
        {
            "bufferView" : 15,
            "componentType" : 5126,
            "count" : 309,
            "type" : "VEC3"
        },
        {
            "bufferView" : 16,
            "componentType" : 5126,
            "count" : 309,
            "type" : "VEC2"
        },
        {
            "bufferView" : 17,
            "componentType" : 5126,
            "count" : 309,
            "max" : [
                1.0909231901168823,
                1.0321370363235474,
                1.0578778982162476
            ],
            "min" : [
                -1.0628046989440918,
                -1,
                -1.0467510223388672
            ],
            "type" : "VEC3"
        },
        {
            "bufferView" : 18,
            "componentType" : 5126,
            "count" : 309,
            "type" : "VEC3"
        },
        {
            "bufferView" : 19,
            "componentType" : 5126,
            "count" : 309,
            "type" : "VEC2"
        },
        {
            "bufferView" : 20,
            "componentType" : 5126,
            "count" : 309,
            "max" : [
                1.0909231901168823,
                1.0321370363235474,
                1.0578778982162476
            ],
            "min" : [
                -1.0628046989440918,
                -1,
                -1.0467510223388672
            ],
            "type" : "VEC3"
        },
        {
            "bufferView" : 21,
            "componentType" : 5126,
            "count" : 309,
            "type" : "VEC3"
        },
        {
            "bufferView" : 22,
            "componentType" : 5126,
            "count" : 309,
            "type" : "VEC2"
        }
    ],
    "bufferViews" : [
        {
            "buffer" : 0,
            "byteLength" : 3708,
            "byteOffset" : 0
        },
        {
            "buffer" : 0,
            "byteLength" : 3708,
            "byteOffset" : 3708
        },
        {
            "buffer" : 0,
            "byteLength" : 2472,
            "byteOffset" : 7416
        },
        {
            "buffer" : 0,
            "byteLength" : 1152,
            "byteOffset" : 9888
        },
        {
            "buffer" : 0,
            "byteLength" : 776443,
            "byteOffset" : 11040
        },
        {
            "buffer" : 0,
            "byteLength" : 3708,
            "byteOffset" : 787484
        },
        {
            "buffer" : 0,
            "byteLength" : 3708,
            "byteOffset" : 791192
        },
        {
            "buffer" : 0,
            "byteLength" : 2472,
            "byteOffset" : 794900
        },
        {
            "buffer" : 0,
            "byteLength" : 3708,
            "byteOffset" : 797372
        },
        {
            "buffer" : 0,
            "byteLength" : 3708,
            "byteOffset" : 801080
        },
        {
            "buffer" : 0,
            "byteLength" : 2472,
            "byteOffset" : 804788
        },
        {
            "buffer" : 0,
            "byteLength" : 3708,
            "byteOffset" : 807260
        },
        {
            "buffer" : 0,
            "byteLength" : 3708,
            "byteOffset" : 810968
        },
        {
            "buffer" : 0,
            "byteLength" : 2472,
            "byteOffset" : 814676
        },
        {
            "buffer" : 0,
            "byteLength" : 3708,
            "byteOffset" : 817148
        },
        {
            "buffer" : 0,
            "byteLength" : 3708,
            "byteOffset" : 820856
        },
        {
            "buffer" : 0,
            "byteLength" : 2472,
            "byteOffset" : 824564
        },
        {
            "buffer" : 0,
            "byteLength" : 3708,
            "byteOffset" : 827036
        },
        {
            "buffer" : 0,
            "byteLength" : 3708,
            "byteOffset" : 830744
        },
        {
            "buffer" : 0,
            "byteLength" : 2472,
            "byteOffset" : 834452
        },
        {
            "buffer" : 0,
            "byteLength" : 3708,
            "byteOffset" : 836924
        },
        {
            "buffer" : 0,
            "byteLength" : 3708,
            "byteOffset" : 840632
        },
        {
            "buffer" : 0,
            "byteLength" : 2472,
            "byteOffset" : 844340
        }
    ],
    "buffers" : [
        {
            "byteLength" : 846812,
            "uri" : "data:application/octet-stream;base64,"
        }
    ]
}
