{
    "asset" : {
        "generator" : "Khronos glTF Blender I/O v1.3.48",
        "version" : "2.0"
    },
    "scene" : 0,
    "scenes" : [
        {
            "name" : "Scene",
            "nodes" : [
                0,
                1
            ]
        }
    ],
    "nodes" : [
        {
            "name" : "Light",
            "rotation" : [
                0.16907575726509094,
                0.7558803558349609,
                -0.27217137813568115,
                0.570947527885437
            ],
            "translation" : [
                0.39226269721984863,
                7.220261573791504,
                1.067567229270935
            ]
        },
        {
            "mesh" : 0,
            "name" : "Cylinder",
            "rotation" : [
                -0.11145557463169098,
                -0.37988850474357605,
                -0.04616641253232956,
                0.9171319603919983
            ],
            "scale" : [
                1.382889986038208,
                0.6535027623176575,
                1.7133384943008423
            ],
            "translation" : [
                0.000974215567111969,
                7.806283473968506,
                -0.4812154471874237
            ]
        }
    ],
    "materials" : [
        {
            "doubleSided" : true,
            "emissiveFactor" : [
                0,
                0,
                0
            ],
            "name" : "Material.002",
            "pbrMetallicRoughness" : {
                "baseColorTexture" : {
                    "index" : 0,
                    "texCoord" : 0
                },
                "metallicFactor" : 0.699999988079071,
                "roughnessFactor" : 0.5
            }
        }
    ],
    "meshes" : [
        {
            "name" : "Cylinder",
            "primitives" : [
                {
                    "attributes" : {
                        "POSITION" : 0,
                        "NORMAL" : 1,
                        "TEXCOORD_0" : 2
                    },
                    "indices" : 3,
                    "material" : 0
                }
            ]
        }
    ],
    "textures" : [
        {
            "source" : 0
        }
    ],
    "images" : [
        {
            "bufferView" : 4,
            "mimeType" : "image/png",
            "name" : "headress_texture"
        }
    ],
    "accessors" : [
        {
            "bufferView" : 0,
            "componentType" : 5126,
            "count" : 28896,
            "max" : [
                1.003136157989502,
                3.9377965927124023,
                1.0511078834533691
            ],
            "min" : [
                -1.0050171613693237,
                -0.8549822568893433,
                -1.025909423828125
            ],
            "type" : "VEC3"
        },
        {
            "bufferView" : 1,
            "componentType" : 5126,
            "count" : 28896,
            "type" : "VEC3"
        },
        {
            "bufferView" : 2,
            "componentType" : 5126,
            "count" : 28896,
            "type" : "VEC2"
        },
        {
            "bufferView" : 3,
            "componentType" : 5123,
            "count" : 43344,
            "type" : "SCALAR"
        }
    ],
    "bufferViews" : [
        {
            "buffer" : 0,
            "byteLength" : 346752,
            "byteOffset" : 0
        },
        {
            "buffer" : 0,
            "byteLength" : 346752,
            "byteOffset" : 346752
        },
        {
            "buffer" : 0,
            "byteLength" : 231168,
            "byteOffset" : 693504
        },
        {
            "buffer" : 0,
            "byteLength" : 86688,
            "byteOffset" : 924672
        },
        {
            "buffer" : 0,
            "byteLength" : 342573,
            "byteOffset" : 1011360
        }
    ],
    "buffers" : [
        {
            "byteLength" : 1353936,
            "uri" : "data:application/octet-stream;base64,"
        }
    ]
}
