{
    "asset" : {
        "generator" : "Khronos glTF Blender I/O v1.3.48",
        "version" : "2.0"
    },
    "scene" : 0,
    "scenes" : [
        {
            "name" : "Scene",
            "nodes" : [
                0,
                1
            ]
        }
    ],
    "nodes" : [
        {
            "name" : "Light",
            "rotation" : [
                0.16907575726509094,
                0.7558803558349609,
                -0.27217137813568115,
                0.570947527885437
            ],
            "translation" : [
                0.39226269721984863,
                7.220261573791504,
                1.067567229270935
            ]
        },
        {
            "mesh" : 0,
            "name" : "Jacket",
            "rotation" : [
                0.7071068286895752,
                0,
                0,
                0.7071068286895752
            ],
            "scale" : [
                4.963320255279541,
                4.963320255279541,
                4.963320255279541
            ]
        }
    ],
    "materials" : [
        {
            "doubleSided" : true,
            "emissiveFactor" : [
                0,
                0,
                0
            ],
            "name" : "Material.001",
            "pbrMetallicRoughness" : {
                "baseColorTexture" : {
                    "index" : 0,
                    "texCoord" : 0
                },
                "metallicFactor" : 0.699999988079071,
                "roughnessFactor" : 0.5
            }
        }
    ],
    "meshes" : [
        {
            "name" : "Plane.001",
            "primitives" : [
                {
                    "attributes" : {
                        "POSITION" : 0,
                        "NORMAL" : 1,
                        "TEXCOORD_0" : 2
                    },
                    "indices" : 3,
                    "material" : 0
                }
            ]
        }
    ],
    "textures" : [
        {
            "source" : 0
        }
    ],
    "images" : [
        {
            "bufferView" : 4,
            "mimeType" : "image/png",
            "name" : "costume_texture"
        }
    ],
    "accessors" : [
        {
            "bufferView" : 0,
            "componentType" : 5126,
            "count" : 9392,
            "max" : [
                1.6547942161560059,
                0.2797357738018036,
                1.0674142837524414
            ],
            "min" : [
                -1.6547942161560059,
                -0.5049586892127991,
                -1.0648887157440186
            ],
            "type" : "VEC3"
        },
        {
            "bufferView" : 1,
            "componentType" : 5126,
            "count" : 9392,
            "type" : "VEC3"
        },
        {
            "bufferView" : 2,
            "componentType" : 5126,
            "count" : 9392,
            "type" : "VEC2"
        },
        {
            "bufferView" : 3,
            "componentType" : 5123,
            "count" : 14232,
            "type" : "SCALAR"
        }
    ],
    "bufferViews" : [
        {
            "buffer" : 0,
            "byteLength" : 112704,
            "byteOffset" : 0
        },
        {
            "buffer" : 0,
            "byteLength" : 112704,
            "byteOffset" : 112704
        },
        {
            "buffer" : 0,
            "byteLength" : 75136,
            "byteOffset" : 225408
        },
        {
            "buffer" : 0,
            "byteLength" : 28464,
            "byteOffset" : 300544
        },
        {
            "buffer" : 0,
            "byteLength" : 372026,
            "byteOffset" : 329008
        }
    ],
    "buffers" : [
        {
            "byteLength" : 701036,
            "uri" : "data:application/octet-stream;base64,"
        }
    ]
}
