{
    "asset" : {
        "generator" : "Khronos glTF Blender I/O v1.3.48",
        "version" : "2.0"
    },
    "scene" : 0,
    "scenes" : [
        {
            "name" : "Scene",
            "nodes" : [
                0
            ]
        }
    ],
    "nodes" : [
        {
            "mesh" : 0,
            "name" : "Mold",
            "rotation" : [
                0,
                0,
                -1,
                -4.371138828673793e-08
            ],
            "scale" : [
                1.7784279584884644,
                2.1155998706817627,
                -1.7784279584884644
            ],
            "translation" : [
                0.0062465667724609375,
                1.9692103862762451,
                -0.06082439422607422
            ]
        }
    ],
    "materials" : [
        {
            "doubleSided" : true,
            "emissiveFactor" : [
                0,
                0,
                0
            ],
            "name" : "Old Brass",
            "pbrMetallicRoughness" : {
                "baseColorTexture" : {
                    "index" : 0,
                    "texCoord" : 0
                },
                "metallicFactor" : 0.8652478456497192,
                "roughnessFactor" : 0.3439716100692749
            }
        }
    ],
    "meshes" : [
        {
            "name" : "Torus.001",
            "primitives" : [
                {
                    "attributes" : {
                        "POSITION" : 0,
                        "NORMAL" : 1,
                        "TEXCOORD_0" : 2
                    },
                    "indices" : 3,
                    "material" : 0
                }
            ]
        }
    ],
    "textures" : [
        {
            "source" : 0
        }
    ],
    "images" : [
        {
            "bufferView" : 4,
            "mimeType" : "image/png",
            "name" : "brass_texture"
        }
    ],
    "accessors" : [
        {
            "bufferView" : 0,
            "componentType" : 5126,
            "count" : 15558,
            "max" : [
                2.0500426292419434,
                0.9878506660461426,
                2.44352388381958
            ],
            "min" : [
                -2.050239086151123,
                -0.3267892897129059,
                -2.050239324569702
            ],
            "type" : "VEC3"
        },
        {
            "bufferView" : 1,
            "componentType" : 5126,
            "count" : 15558,
            "type" : "VEC3"
        },
        {
            "bufferView" : 2,
            "componentType" : 5126,
            "count" : 15558,
            "type" : "VEC2"
        },
        {
            "bufferView" : 3,
            "componentType" : 5123,
            "count" : 15558,
            "type" : "SCALAR"
        }
    ],
    "bufferViews" : [
        {
            "buffer" : 0,
            "byteLength" : 186696,
            "byteOffset" : 0
        },
        {
            "buffer" : 0,
            "byteLength" : 186696,
            "byteOffset" : 186696
        },
        {
            "buffer" : 0,
            "byteLength" : 124464,
            "byteOffset" : 373392
        },
        {
            "buffer" : 0,
            "byteLength" : 31116,
            "byteOffset" : 497856
        },
        {
            "buffer" : 0,
            "byteLength" : 1046022,
            "byteOffset" : 528972
        }
    ],
    "buffers" : [
        {
            "byteLength" : 1574996,
            "uri" : "data:application/octet-stream;base64,"
        }
    ]
}
